<?xml version="1.0" encoding="utf-8"?>
<!-- Generator: Adobe Illustrator 27.0.0, SVG Export Plug-In . SVG Version: 6.00 Build 0)  -->
<svg version="1.1" id="Layer_1" xmlns="http://www.w3.org/2000/svg" xmlns:xlink="http://www.w3.org/1999/xlink" x="0px" y="0px"
	 viewBox="0 0 1366 768" style="enable-background:new 0 0 1366 768;" xml:space="preserve">
<style type="text/css">
	.st0{fill:#333333;}
	.st1{fill:#E0A12C;}
	.st2{fill:#F6D160;}
	.st3{fill:none;}
	.st4{fill:#1A1A1A;}
	.st5{fill:#FFFFFF;}
</style>
<g>
	<g>
		<path class="st0" d="M503.41,339.96v-33.29h5.89v32.6c0,6.52,2.08,10.89,9.92,10.89c7.84,0,9.92-4.37,9.92-10.89v-32.6h5.9v33.29
			c0,10.13-5.34,15.81-15.81,15.81C508.75,355.78,503.41,350.09,503.41,339.96z"/>
		<path class="st0" d="M548.21,306.67h5.9v21.09h5.34L572,306.67h6.59l-14.29,23.17l14.63,25.39h-6.73l-12.28-22.06h-5.83v22.06
			h-5.9V306.67z"/>
		<path class="st0" d="M587.39,306.67h13.45c10.13,0,16.3,4.02,16.3,14.77c0,9.64-5.62,12.76-9.09,13.87l10.41,19.91h-6.66l-9.57-19
			h-8.95v19h-5.89V306.67z M593.28,330.81h7.91c6.31,0,9.92-2.43,9.92-9.36c0-7.42-3.75-9.36-10.68-9.36h-7.15V330.81z"/>
		<path class="st0" d="M633.86,343.16l-3.81,12.07h-6.17l16.02-48.55h5.13l16.09,48.55c0,0,0,0-6.24,0l-3.82-12.07H633.86z
			 M642.32,315.76l-7.01,21.92h14.29l-7.01-21.92H642.32z"/>
		<path class="st0" d="M669.71,306.67h5.89v48.55h-5.89V306.67z"/>
		<path class="st0" d="M688.78,306.67h4.51l22.68,36.48h0.34v-36.48h5.55v48.55h-5.13l-22.06-35.86h-0.35v35.86h-5.55V306.67z"/>
		<path class="st0" d="M735.04,306.67h5.89v48.55h-5.89V306.67z"/>
		<path class="st0" d="M759.59,343.16l-3.81,12.07h-6.17l16.02-48.55h5.13l16.09,48.55c0,0,0,0-6.24,0l-3.82-12.07H759.59z
			 M768.05,315.76l-7.01,21.92h14.29l-7.01-21.92H768.05z"/>
		<path class="st0" d="M795.44,306.67h4.51l22.68,36.48h0.35v-36.48h5.55v48.55h-5.13l-22.06-35.86h-0.34v35.86h-5.55V306.67z"/>
		<path class="st0" d="M501.67,422.28v-16.23c0-10.13,5.27-16.72,16.09-16.72c6.17,0,11.38,2.43,14.22,9.15l-4.79,2.43
			c-2.08-3.54-4.16-5.96-9.43-5.96c-7.42,0-10.19,4.3-10.19,11.79v14.84c0,7.49,2.77,11.79,10.19,11.79c4.23,0,7.56-2.36,9.43-6.1
			l4.79,2.57c-2.15,4.79-6.17,9.16-14.22,9.16C506.95,439,501.67,432.41,501.67,422.28z"/>
		<path class="st0" d="M538.78,422.28v-16.23c0-10.13,5.27-16.72,16.09-16.72c10.82,0,16.09,6.59,16.09,16.72v16.23
			c0,10.13-5.27,16.72-16.09,16.72C544.05,439,538.78,432.41,538.78,422.28z M565.06,421.59v-14.84c0-7.49-2.7-11.79-10.2-11.79
			c-7.49,0-10.19,4.3-10.19,11.79v14.84c0,7.49,2.7,11.79,10.19,11.79C562.36,433.38,565.06,429.08,565.06,421.59z"/>
		<path class="st0" d="M582.4,389.89h4.51l22.68,36.48h0.35v-36.48h5.55v48.55h-5.13l-22.06-35.86h-0.34v35.86h-5.55V389.89z"/>
		<path class="st0" d="M649.25,425.06c0-14.84-23.24-5.48-23.24-22.75c0-8.32,4.92-12.97,14.01-12.97c4.79,0,9.36,1.46,13.18,4.37
			l-2.64,4.44c-3.81-2.5-7.49-3.33-10.54-3.33c-6.8,0-8.26,3.54-8.26,7.42c0,11.1,23.24,3.82,23.24,22.33
			c0,7.91-4.3,14.43-15.33,14.43c-5.13,0-10.54-1.6-14.7-4.65l2.7-4.65c3.47,1.87,7.01,3.68,12,3.68
			C646.89,433.38,649.25,429.71,649.25,425.06z"/>
		<path class="st0" d="M679.84,438.45h-5.9V395.3h-13.18v-5.41h32.18v5.41h-13.11V438.45z"/>
		<path class="st0" d="M702.72,389.89h13.45c10.13,0,16.3,4.02,16.3,14.77c0,9.64-5.62,12.76-9.09,13.87l10.41,19.91h-6.66l-9.57-19
			h-8.95v19h-5.89V389.89z M708.62,414.03h7.91c6.31,0,9.92-2.43,9.92-9.36c0-7.42-3.75-9.36-10.68-9.36h-7.15V414.03z"/>
		<path class="st0" d="M743.71,423.19v-33.29h5.9v32.6c0,6.52,2.08,10.89,9.92,10.89c7.84,0,9.92-4.37,9.92-10.89v-32.6h5.9v33.29
			c0,10.13-5.34,15.81-15.81,15.81C749.05,439,743.71,433.31,743.71,423.19z"/>
		<path class="st0" d="M786.77,422.28v-16.23c0-10.13,5.27-16.72,16.09-16.72c6.17,0,11.38,2.43,14.22,9.15l-4.79,2.43
			c-2.08-3.54-4.16-5.96-9.43-5.96c-7.42,0-10.19,4.3-10.19,11.79v14.84c0,7.49,2.77,11.79,10.19,11.79c4.23,0,7.56-2.36,9.43-6.1
			l4.79,2.57c-2.15,4.79-6.17,9.16-14.22,9.16C792.04,439,786.77,432.41,786.77,422.28z"/>
		<path class="st0" d="M841.21,438.45h-5.9V395.3h-13.18v-5.41h32.18v5.41h-13.11V438.45z"/>
		<path class="st0" d="M864.1,389.89h5.89v48.55h-5.89V389.89z"/>
		<path class="st0" d="M881.43,422.28v-16.23c0-10.13,5.27-16.72,16.09-16.72c6.17,0,11.38,2.43,14.22,9.15l-4.79,2.43
			c-2.08-3.54-4.16-5.96-9.43-5.96c-7.42,0-10.2,4.3-10.2,11.79v14.84c0,7.49,2.78,11.79,10.2,11.79c4.23,0,7.56-2.36,9.43-6.1
			l4.79,2.57c-2.15,4.79-6.17,9.16-14.22,9.16C886.71,439,881.43,432.41,881.43,422.28z"/>
		<path class="st0" d="M918.54,422.28v-16.23c0-10.13,5.27-16.72,16.09-16.72c10.82,0,16.09,6.59,16.09,16.72v16.23
			c0,10.13-5.27,16.72-16.09,16.72C923.81,439,918.54,432.41,918.54,422.28z M944.82,421.59v-14.84c0-7.49-2.7-11.79-10.19-11.79
			c-7.49,0-10.2,4.3-10.2,11.79v14.84c0,7.49,2.71,11.79,10.2,11.79C942.12,433.38,944.82,429.08,944.82,421.59z"/>
		<path class="st0" d="M962.16,389.89h4.51l22.68,36.48h0.34v-36.48h5.55v48.55h-5.13l-22.06-35.86h-0.35v35.86h-5.55V389.89z"/>
	</g>
	<path class="st1" d="M409.98,328.74v133.77c-22.42-4.85-39.22-24.79-39.22-48.67V280.07C393.18,284.91,409.98,304.86,409.98,328.74
		z"/>
	<path class="st2" d="M456.87,305.49c-22.42,4.85-39.22,24.8-39.22,48.67v133.77c22.42-4.85,39.22-24.79,39.22-48.67V305.49"/>
</g>
<path class="st3" d="M495.16,328.74v133.77c-22.42-4.85-39.22-24.79-39.22-48.67V280.07C478.36,284.91,495.16,304.86,495.16,328.74z
	"/>
<rect x="-10" y="842" class="st4" width="1366" height="768"/>
<g>
	<g>
		<path class="st5" d="M493.41,1181.96v-33.29h5.89v32.6c0,6.52,2.08,10.89,9.92,10.89s9.92-4.37,9.92-10.89v-32.6h5.9v33.29
			c0,10.13-5.34,15.81-15.81,15.81C498.75,1197.78,493.41,1192.09,493.41,1181.96z"/>
		<path class="st5" d="M538.21,1148.67h5.9v21.09h5.34l12.55-21.09h6.59l-14.29,23.17l14.63,25.39h-6.73l-12.28-22.06h-5.83v22.06
			h-5.9V1148.67z"/>
		<path class="st5" d="M577.39,1148.67h13.45c10.13,0,16.3,4.02,16.3,14.77c0,9.64-5.62,12.76-9.09,13.87l10.41,19.91h-6.66
			l-9.57-19h-8.95v19h-5.89V1148.67z M583.28,1172.81h7.91c6.31,0,9.92-2.43,9.92-9.36c0-7.42-3.75-9.36-10.68-9.36h-7.15V1172.81z"
			/>
		<path class="st5" d="M623.86,1185.16l-3.81,12.07h-6.17l16.02-48.55h5.13l16.09,48.55c0,0,0,0-6.24,0l-3.82-12.07H623.86z
			 M632.32,1157.76l-7.01,21.92h14.29l-7.01-21.92H632.32z"/>
		<path class="st5" d="M659.71,1148.67h5.89v48.55h-5.89V1148.67z"/>
		<path class="st5" d="M678.78,1148.67h4.51l22.68,36.48h0.34v-36.48h5.55v48.55h-5.13l-22.06-35.86h-0.35v35.86h-5.55V1148.67z"/>
		<path class="st5" d="M725.04,1148.67h5.89v48.55h-5.89V1148.67z"/>
		<path class="st5" d="M749.59,1185.16l-3.81,12.07h-6.17l16.02-48.55h5.13l16.09,48.55c0,0,0,0-6.24,0l-3.82-12.07H749.59z
			 M758.05,1157.76l-7.01,21.92h14.29l-7.01-21.92H758.05z"/>
		<path class="st5" d="M785.44,1148.67h4.51l22.68,36.48h0.35v-36.48h5.55v48.55h-5.13l-22.06-35.86h-0.34v35.86h-5.55V1148.67z"/>
		<path class="st5" d="M491.67,1264.28v-16.23c0-10.13,5.27-16.72,16.09-16.72c6.17,0,11.38,2.43,14.22,9.15l-4.79,2.43
			c-2.08-3.54-4.16-5.96-9.43-5.96c-7.42,0-10.19,4.3-10.19,11.79v14.84c0,7.49,2.77,11.79,10.19,11.79c4.23,0,7.56-2.36,9.43-6.1
			l4.79,2.57c-2.15,4.79-6.17,9.16-14.22,9.16C496.95,1281,491.67,1274.41,491.67,1264.28z"/>
		<path class="st5" d="M528.78,1264.28v-16.23c0-10.13,5.27-16.72,16.09-16.72c10.82,0,16.09,6.59,16.09,16.72v16.23
			c0,10.13-5.27,16.72-16.09,16.72C534.05,1281,528.78,1274.41,528.78,1264.28z M555.06,1263.59v-14.84c0-7.49-2.7-11.79-10.2-11.79
			c-7.49,0-10.19,4.3-10.19,11.79v14.84c0,7.49,2.7,11.79,10.19,11.79C552.36,1275.38,555.06,1271.08,555.06,1263.59z"/>
		<path class="st5" d="M572.4,1231.89h4.51l22.68,36.48h0.35v-36.48h5.55v48.55h-5.13l-22.06-35.86h-0.34v35.86h-5.55V1231.89z"/>
		<path class="st5" d="M639.25,1267.06c0-14.84-23.24-5.48-23.24-22.75c0-8.32,4.92-12.97,14.01-12.97c4.79,0,9.36,1.46,13.18,4.37
			l-2.64,4.44c-3.81-2.5-7.49-3.33-10.54-3.33c-6.8,0-8.26,3.54-8.26,7.42c0,11.1,23.24,3.82,23.24,22.33
			c0,7.91-4.3,14.43-15.33,14.43c-5.13,0-10.54-1.6-14.7-4.65l2.7-4.65c3.47,1.87,7.01,3.68,12,3.68
			C636.89,1275.38,639.25,1271.71,639.25,1267.06z"/>
		<path class="st5" d="M669.84,1280.45h-5.9v-43.14h-13.18v-5.41h32.18v5.41h-13.11V1280.45z"/>
		<path class="st5" d="M692.72,1231.89h13.45c10.13,0,16.3,4.02,16.3,14.77c0,9.64-5.62,12.76-9.09,13.87l10.41,19.91h-6.66
			l-9.57-19h-8.95v19h-5.89V1231.89z M698.62,1256.03h7.91c6.31,0,9.92-2.43,9.92-9.36c0-7.42-3.75-9.36-10.68-9.36h-7.15V1256.03z"
			/>
		<path class="st5" d="M733.71,1265.19v-33.29h5.9v32.6c0,6.52,2.08,10.89,9.92,10.89c7.84,0,9.92-4.37,9.92-10.89v-32.6h5.9v33.29
			c0,10.13-5.34,15.81-15.81,15.81C739.05,1281,733.71,1275.31,733.71,1265.19z"/>
		<path class="st5" d="M776.77,1264.28v-16.23c0-10.13,5.27-16.72,16.09-16.72c6.17,0,11.38,2.43,14.22,9.15l-4.79,2.43
			c-2.08-3.54-4.16-5.96-9.43-5.96c-7.42,0-10.19,4.3-10.19,11.79v14.84c0,7.49,2.77,11.79,10.19,11.79c4.23,0,7.56-2.36,9.43-6.1
			l4.79,2.57c-2.15,4.79-6.17,9.16-14.22,9.16C782.04,1281,776.77,1274.41,776.77,1264.28z"/>
		<path class="st5" d="M831.21,1280.45h-5.9v-43.14h-13.18v-5.41h32.18v5.41h-13.11V1280.45z"/>
		<path class="st5" d="M854.1,1231.89h5.89v48.55h-5.89V1231.89z"/>
		<path class="st5" d="M871.43,1264.28v-16.23c0-10.13,5.27-16.72,16.09-16.72c6.17,0,11.38,2.43,14.22,9.15l-4.79,2.43
			c-2.08-3.54-4.16-5.96-9.43-5.96c-7.42,0-10.2,4.3-10.2,11.79v14.84c0,7.49,2.78,11.79,10.2,11.79c4.23,0,7.56-2.36,9.43-6.1
			l4.79,2.57c-2.15,4.79-6.17,9.16-14.22,9.16C876.71,1281,871.43,1274.41,871.43,1264.28z"/>
		<path class="st5" d="M908.54,1264.28v-16.23c0-10.13,5.27-16.72,16.09-16.72c10.82,0,16.09,6.59,16.09,16.72v16.23
			c0,10.13-5.27,16.72-16.09,16.72C913.81,1281,908.54,1274.41,908.54,1264.28z M934.82,1263.59v-14.84
			c0-7.49-2.7-11.79-10.19-11.79c-7.49,0-10.2,4.3-10.2,11.79v14.84c0,7.49,2.71,11.79,10.2,11.79
			C932.12,1275.38,934.82,1271.08,934.82,1263.59z"/>
		<path class="st5" d="M952.16,1231.89h4.51l22.68,36.48h0.34v-36.48h5.55v48.55h-5.13l-22.06-35.86h-0.35v35.86h-5.55V1231.89z"/>
	</g>
	<path class="st1" d="M399.98,1170.74v133.77c-22.42-4.85-39.22-24.79-39.22-48.67v-133.78
		C383.18,1126.91,399.98,1146.86,399.98,1170.74z"/>
	<path class="st2" d="M446.87,1147.49c-22.42,4.85-39.22,24.8-39.22,48.67v133.77c22.42-4.85,39.22-24.79,39.22-48.67V1147.49"/>
</g>
</svg>
